/* XPM */
static const char *addcomp_xpm[]={
"16 16 11 1",
"e c #000000",
"a c #6e6e6e",
". c #b7b7b7",
"i c #b9b9b9",
"h c #bebebe",
"g c #d4d4d4",
"f c #d9d9d9",
"d c #dedede",
"c c #e4e4e4",
"b c #e9e9e9",
"# c #ffffff",
"...............#",
".aaaaaaaaaaaaaa#",
".a###########.a#",
".a#bbbbbbbbbb.a#",
".a#cccdeedccc.a#",
".a#dccdeeddcd.a#",
".a#ffddeeddff.a#",
".a#ceeeeeeeec.a#",
".a#ceeeeeeeec.a#",
".a#ggggeegggc.a#",
".a#ggggeehhh..a#",
".a#hhhheehhhh.a#",
".a#iiihiiiiii.a#",
".a............a#",
".aaaaaaaaaaaaaa#",
"################"};
