/* XPM */
static const char *bbis_xpm[]={
"16 16 15 1",
"j c None",
"d c #000000",
"f c #0000ff",
"a c #008000",
"# c #00c000",
". c #303030",
"c c #585858",
"g c #800000",
"l c #808080",
"b c #a0a0a4",
"k c #c0c0c0",
"e c #c0c0ff",
"h c #ff8000",
"i c #ffffc0",
"m c #ffffff",
"................",
".##############.",
".#abbbaaabbbbba.",
".#abcdaaabcccda.",
".#adddaaaddddda.",
".#ababaeaaabaaa.",
".#ababbfaghbbba.",
".#abaaaaaaaaaaa.",
"..aiaiaiaiaiaia.",
"j.aiaiaiaiaiaia.",
"j...............",
"jjjjjjjjjjjjjjjj",
"klklklklklklklkk",
"dmmmmmmmmmmmmmml",
"dmmmmmmmmmmmmmmc",
"dddddddddddddddd"};
