/* XPM */
static const char *buildinstall_xpm[]={
"16 16 66 2",
"## c None",
".r c #000000",
".U c #0d4e79",
".a c #555555",
".C c #585858",
"Qt c #5a5a5a",
".c c #5d5d5d",
".E c #5e2479",
".b c #642780",
".# c #666666",
".B c #6e308b",
".A c #6f2f90",
".z c #763796",
".y c #793b9c",
".x c #7e3ea3",
".w c #8242a7",
".v c #894caf",
".o c #8957a0",
".n c #8d61a4",
".s c #9056b5",
".m c #9065a8",
".u c #915ab1",
".t c #925ab5",
".l c #9570ab",
".k c #9873ae",
".j c #a480b9",
".i c #a881be",
".h c #ae86c5",
".g c #b892cd",
".f c #b895ce",
".q c #c3c3c3",
".e c #c7c7c7",
".p c #dddddd",
".W c #dedebf",
"#. c #dedec0",
".9 c #dedec1",
".8 c #dedec3",
".T c #dedec4",
".R c #dedec8",
".7 c #dedec9",
".6 c #dedecb",
".5 c #dedecc",
".4 c #dedece",
".3 c #deded0",
".2 c #deded4",
".1 c #deded8",
".Z c #dededc",
".M c #dedede",
".d c #e4e4e4",
".L c #eeeee6",
".F c #eeeeee",
".D c #ff0000",
".0 c #ffffcb",
".Y c #ffffd0",
".X c #ffffd5",
".V c #ffffda",
".S c #ffffdf",
".Q c #ffffe5",
".P c #ffffea",
".O c #ffffef",
".N c #fffff4",
".K c #fffff7",
".J c #fffff9",
".I c #fffffb",
".H c #fffffd",
".G c #ffffff",
"Qt.#.a.b.b.b.b.b.b.b.b.b.b.a.a.a",
".c.d.e.f.g.h.i.j.k.l.m.n.o.p.q.r",
".a.e.e.s.t.u.v.w.x.y.z.A.B.e.q.r",
".a.C.D.D.D.E.E.E.E.E.E.E.E.C.C.r",
".a.F.G.D.G.G.G.G.G.G.H.I.J.K.L.r",
".a.M.G.D.G.G.G.G.G.J.N.O.P.Q.R.r",
".a.M.G.D.G.G.G.G.J.N.O.P.Q.S.T.r",
".a.M.G.D.G.G.G.J.U.U.U.r.S.V.W.r",
".a.M.G.D.G.G.J.N.U.U.U.r.V.X.W.r",
".a.M.G.D.G.J.N.O.U.U.U.r.X.Y.W.r",
".a.Z.D.D.D.N.O.P.U.U.U.r.Y.0.W.r",
".a.1.2.3.4.5.6.7.U.U.U.r.8.9#..r",
".a.r.r.r.r.r.U.U.U.U.U.U.U.r.r.r",
"##############.U.U.U.U.U.r######",
"################.U.U.U.r########",
"##################.U.r##########"};
