/* XPM */
static const char *build_xpm[]={
"16 16 65 2",
"#. c None",
".r c #000000",
".T c #0d4e79",
".a c #555555",
".C c #585858",
"Qt c #5a5a5a",
".c c #5d5d5d",
".D c #5e2479",
".b c #642780",
".# c #666666",
".B c #6e308b",
".A c #6f2f90",
".z c #763796",
".y c #793b9c",
".x c #7e3ea3",
".w c #8242a7",
".v c #894caf",
".o c #8957a0",
".n c #8d61a4",
".s c #9056b5",
".m c #9065a8",
".u c #915ab1",
".t c #925ab5",
".l c #9570ab",
".k c #9873ae",
".j c #a480b9",
".i c #a881be",
".h c #ae86c5",
".g c #b892cd",
".f c #b895ce",
".q c #c3c3c3",
".e c #c7c7c7",
".p c #dddddd",
".V c #dedebf",
".9 c #dedec0",
".8 c #dedec1",
".7 c #dedec3",
".S c #dedec4",
".Q c #dedec8",
".6 c #dedec9",
".5 c #dedecb",
".4 c #dedecc",
".3 c #dedece",
".2 c #deded0",
".1 c #deded4",
".0 c #deded8",
".Y c #dededc",
".L c #dedede",
".d c #e4e4e4",
".K c #eeeee6",
".E c #eeeeee",
".Z c #ffffcb",
".X c #ffffd0",
".W c #ffffd5",
".U c #ffffda",
".R c #ffffdf",
".P c #ffffe5",
".O c #ffffea",
".N c #ffffef",
".M c #fffff4",
".J c #fffff7",
".I c #fffff9",
".H c #fffffb",
".G c #fffffd",
".F c #ffffff",
"Qt.#.a.b.b.b.b.b.b.b.b.b.b.a.a.a",
".c.d.e.f.g.h.i.j.k.l.m.n.o.p.q.r",
".a.e.e.s.t.u.v.w.x.y.z.A.B.e.q.r",
".a.C.C.D.D.D.D.D.D.D.D.D.D.C.C.r",
".a.E.F.F.F.F.F.F.F.F.G.H.I.J.K.r",
".a.L.F.F.F.F.F.F.F.I.M.N.O.P.Q.r",
".a.L.F.F.F.F.F.F.I.M.N.O.P.R.S.r",
".a.L.F.F.F.F.F.I.T.T.T.r.R.U.V.r",
".a.L.F.F.F.F.I.M.T.T.T.r.U.W.V.r",
".a.L.F.F.F.I.M.N.T.T.T.r.W.X.V.r",
".a.Y.F.F.I.M.N.O.T.T.T.r.X.Z.V.r",
".a.0.1.2.3.4.5.6.T.T.T.r.7.8.9.r",
".a.r.r.r.r.r.T.T.T.T.T.T.T.r.r.r",
"#.#.#.#.#.#.#..T.T.T.T.T.r#.#.#.",
"#.#.#.#.#.#.#.#..T.T.T.r#.#.#.#.",
"#.#.#.#.#.#.#.#.#..T.r#.#.#.#.#."};
