/* XPM */
static const char *filesave_xpm[]={
"16 16 26 1",
". c None",
"# c #000000",
"r c #0c0c0c",
"x c #363636",
"w c #3e3e3e",
"u c #444444",
"t c #4c4c4c",
"a c #535353",
"p c #5d5d5d",
"o c #636363",
"q c #6a6a6a",
"l c #747474",
"m c #7c7c7c",
"k c #838383",
"g c #8c8c8c",
"h c #939393",
"e c #9a9a9a",
"f c #a4a4a4",
"c c #adadad",
"i c #b5b5b5",
"b c #c1c1c1",
"n c #cfcfcf",
"v c #d9d9d9",
"s c #e6e6e6",
"j c #efefef",
"d c #ffffff",
"....###.........",
"...abcd###......",
"...abedddd###...",
"...abdddddddd###",
"..abfddddddddff#",
"..abgddddddddhf#",
"..aijdddddddkk#.",
".acfhgddddddlg#.",
".aegggkkmddnoh#.",
".akopolqqopaqr..",
"akossstutaaam#..",
"aqtsssssvuaag#..",
"###ssssswtao#...",
"...###ssxaal#...",
"......###aah#...",
".........##r...."};
