/* XPM */
static const char *filenew_xpm[]={
"16 16 42 1",
". c None",
"h c #303030",
"j c #424242",
"# c #585858",
"f c #6c6c6c",
"i c #898989",
"m c #8f8984",
"c c #999999",
"b c #bcb7b1",
"o c #beb6af",
"N c #c79f80",
"I c #c8a487",
"M c #c9a68a",
"G c #caa98e",
"D c #cbad94",
"B c #cdb29c",
"g c #cecece",
"x c #cfb7a4",
"v c #d1bdac",
"r c #d1bfb0",
"L c #d3c3b7",
"K c #d5c9c0",
"J c #d7cfc9",
"a c #dedede",
"l c #e5e0dc",
"H c #e9c7aa",
"e c #eaeaea",
"F c #ecceb4",
"C c #eed5be",
"A c #f1dbc7",
"w c #f2ddcb",
"E c #f2e0cf",
"u c #f4e2d3",
"z c #f6e7da",
"k c #f6f5f5",
"q c #f7e9df",
"y c #f7ece2",
"t c #f9eee5",
"p c #faf3ed",
"n c #fbf7f2",
"s c #fcf9f5",
"d c #ffffff",
"..#########.....",
"..#aaaaab#c#....",
"..#addddefdc#...",
"..#adddddfgdch..",
"..#adddddiffjh..",
"..#adddddklbmh..",
"..#addddddnloh..",
"..#adddddnpqrh..",
"..#adddsptquvh..",
"..#addsntquwxh..",
"..#addspyzuABh..",
"..#adspyzuACDh..",
"..#aspyzEACFGh..",
"..#apyzuACFHIh..",
"..#JJKLvxBDMNh..",
"..#hhhhhhhhhhh.."};
