/* XPM */
static const char *fileopen_xpm[]={
"16 16 39 1",
"# c #000000",
"H c #0a0a0a",
"G c #121212",
"K c #1f1f1e",
"C c #222222",
"u c #323231",
"J c #434343",
"z c #4a4a49",
"f c #4b3119",
"k c #524f4c",
"g c #54514e",
"i c #565350",
"h c #5c5a57",
"B c #686867",
"F c #6f6f6e",
"I c #8d8d8b",
"y c #949493",
"E c #9c9c9b",
"x c #a0a09f",
"D c #a4a4a3",
"w c #adadab",
"t c #b5b5b5",
"A c #b77d44",
"s c #bcbcbc",
"j c #c4864e",
"r c #c4c4c3",
"q c #cccccc",
"p c #d4d4d3",
"o c #dddddc",
"n c #e4e4e3",
"a c #e5a566",
"v c #e8e8e7",
"m c #ececec",
"l c #f5f5f5",
"d c #f8ac62",
"c c #fec383",
"e c #fec88a",
"b c #fed39a",
". c #ffffff",
"......####......",
".....##.####.#..",
"....#.....####..",
"...........###..",
"..........####..",
".####...........",
"#abca#######....",
"#bccdddddddd#...",
"#ecfggghggiig###",
"#cjkllmnopqrsttu",
"#cfoovnoprswxyz.",
"#AgoonopqrtwxBC.",
"#fqqpppqrswDyz..",
"#iqsrrrstwDEFG..",
"HsDwwwwDDEyIz...",
"CzzzzzzzJJJuK..."};
