/* XPM */
static const char *dev_xpm[]={
"16 16 20 1",
". c None",
"l c #008000",
"e c #00bf00",
"k c #202020",
"m c #206000",
"h c #206020",
"f c #208020",
"o c #3f9f00",
"j c #404040",
"g c #408040",
"c c #60a060",
"b c #6e6e6e",
"n c #7f4000",
"d c #7fbf00",
"i c #808080",
"p c #80a080",
"q c #90b090",
"a c #a0a0a0",
"r c #a5a5a5",
"# c #aeaeae",
"................",
"................",
"....#aaaaaab....",
"....#cddddcb....",
"....#cefghcb....",
"....#cegijcb....",
"....#cehjkcb....",
"....#celllcb....",
"....#cmllmcb....",
"....#cllgfcb....",
"....#cnngfcb....",
"....#coddocb....",
"....#pccccqb....",
"....rjiiiijr....",
".....rbbbbb.....",
"................"};
