/* XPM */
static const char * mdiswiz_xpm[] = {
"16 16 49 1",
" 	c None",
".	c #C50038",
"+	c #F0BDCB",
"@	c #FFFFFF",
"#	c #FEFBFC",
"$	c #D4436C",
"%	c #C6043B",
"&	c #CC1F50",
"*	c #E693AB",
"=	c #E489A3",
"-	c #CD2353",
";	c #E58CA5",
">	c #FFFEFE",
",	c #F0BBCA",
"'	c #C7073D",
")	c #CC1D4F",
"!	c #E690A8",
"~	c #DA5D81",
"{	c #E99FB4",
"]	c #C91145",
"^	c #F1C0CE",
"/	c #E487A1",
"(	c #CF2A59",
"_	c #F7DBE3",
":	c #C70A40",
"<	c #CA184B",
"[	c #FBEDF1",
"}	c #FEFAFB",
"|	c #CC1E4F",
"1	c #FDF7F9",
"2	c #CA1548",
"3	c #E27E9A",
"4	c #E07593",
"5	c #CD2253",
"6	c #C6063D",
"7	c #FBECF0",
"8	c #FEF9FA",
"9	c #CB194C",
"0	c #C7093F",
"a	c #FCF0F3",
"b	c #F6D6DF",
"c	c #FDF6F8",
"d	c #EAA3B7",
"e	c #D95A7E",
"f	c #D74D74",
"g	c #C6033A",
"h	c #D02F5D",
"i	c #FBEEF2",
"j	c #CE2656",
"................",
".++++++++++++++.",
".+@@@@@@@@@@@@+.",
".+@@@@@@@@@@@@+.",
".+@@#$%&*=.-;>+.",
".+@@,...')...!+.",
".+@@~.={.]^/.(+.",
".+@_:<[}|'[12:+.",
".+@3.4@1567890+.",
".+a56b@c567890+.",
".+d.e@@c567890+.",
".+fg+@@1h2i8j<+.",
".+@@@@@@@@@@@@+.",
".+@@@@@@@@@@@@+.",
".++++++++++++++.",
"................"};
