/* XPM */
static const char *rebuild_xpm[]={
"16 16 63 1",
"8 c None",
"r c #000000",
"U c #1b521e",
"R c #2f7a41",
"a c #555555",
"C c #585858",
". c #5a5a5a",
"c c #5d5d5d",
"D c #5e2479",
"b c #642780",
"# c #666666",
"B c #6e308b",
"A c #6f2f90",
"z c #763796",
"y c #793b9c",
"x c #7e3ea3",
"w c #8242a7",
"v c #894caf",
"o c #8957a0",
"n c #8d61a4",
"s c #9056b5",
"m c #9065a8",
"u c #915ab1",
"t c #925ab5",
"l c #9570ab",
"k c #9873ae",
"j c #a480b9",
"i c #a881be",
"h c #ae86c5",
"g c #b892cd",
"f c #b895ce",
"q c #c3c3c3",
"e c #c7c7c7",
"p c #dddddd",
"W c #dedebf",
"7 c #dedec0",
"T c #dedec4",
"Q c #dedec8",
"6 c #dedec9",
"5 c #dedecc",
"4 c #dedece",
"3 c #deded0",
"2 c #deded4",
"1 c #deded8",
"Z c #dededc",
"L c #dedede",
"d c #e4e4e4",
"K c #eeeee6",
"E c #eeeeee",
"0 c #ffffcb",
"Y c #ffffd0",
"X c #ffffd5",
"V c #ffffda",
"S c #ffffdf",
"P c #ffffe5",
"O c #ffffea",
"N c #ffffef",
"M c #fffff4",
"J c #fffff7",
"I c #fffff9",
"H c #fffffb",
"G c #fffffd",
"F c #ffffff",
".#abbbbbbbbbbaaa",
"cdefghijklmnopqr",
"aeestuvwxyzABeqr",
"aCCDDDDDDDDDDCCr",
"aEFFFFFFFFGHIJKr",
"aLFFFFFFFIMNOPQr",
"aLFFFFFRRRROPSTr",
"aLFFFFRUMNURSVWr",
"aLFFFFRMNOPSVXWr",
"aLFFRRRRRPSrXYWr",
"aZFFIRRRPSrrr0Wr",
"a12345R6Qrrrrr7r",
"arrrrrrrrrrrrrrr",
"88888888888r8888",
"888888rr88rr8888",
"8888888rrrr88888"};
