/* XPM */
static char *scan_xpm[] = {
/* columns rows colors chars-per-pixel */
"16 16 64 1 ",
"  c #5A5A5A",
". c gray40",
"X c #555555",
"o c #642780",
"O c #5D5D5D",
"+ c #E4E4E4",
"@ c gray78",
"# c #B895CE",
"$ c #B892CD",
"% c #AE86C5",
"& c #A881BE",
"* c #A480B9",
"= c #9873AE",
"- c #9570AB",
"; c #9065A8",
": c #8D61A4",
"> c #8957A0",
", c #DDDDDD",
"< c #C3C3C3",
"1 c black",
"2 c #9056B5",
"3 c #925AB5",
"4 c #915AB1",
"5 c #894CAF",
"6 c #8242A7",
"7 c #7E3EA3",
"8 c #793B9C",
"9 c #763796",
"0 c #6F2F90",
"q c #6E308B",
"w c #585858",
"e c #5E2479",
"r c #EEEEEE",
"t c gray100",
"y c #FFFFFD",
"u c #FFFFFB",
"i c #FFFFF9",
"p c #FFFFF7",
"a c #EEEEE6",
"s c gray87",
"d c #FFFFF4",
"f c #FFFFEF",
"g c #FFFFEA",
"h c #FFFFE5",
"j c #DEDEC8",
"k c #FFFFDF",
"l c #DEDEC4",
"z c #0D4E79",
"x c #FFFFDA",
"c c #DEDEBF",
"v c #FFFFD5",
"b c #FFFFD0",
"n c #DEDEDC",
"m c #FFFFCB",
"M c #DEDED8",
"N c #DEDED4",
"B c #DEDED0",
"V c #DEDECE",
"C c #DEDECC",
"Z c #DEDECB",
"A c #DEDEC9",
"S c #DEDEC3",
"D c #DEDEC1",
"F c #DEDEC0",
/* pixels */
"tttttttteeeeettt",
"ttttttteeeeeeeet",
"tttttteeettteeee",
"1t1t1teet11tteee",
"1t1t1eeet11tttee",
"ttttteett11tttee",
"ttttteett11tttee",
"tttttteettttteee",
"ttttt1eeettteeee",
"tttt111eeeeeeeet",
"ttt111<<1eeeettt",
"tt111<<ttttttttt",
"t111<<tttttttttt",
"111<<ttttttttttt",
"11<<tttttttttttt",
"11<ttttttttttttt"
};
